<svg xmlns="http://www.w3.org/2000/svg" enable-background="new 0 0 24 24" viewBox="0 0 24 24" id="dot-net"><polygon fill="#00AEEF" points="16.916 8.441 16.916 7.502 12.481 7.501 12.481 16.378 17.131 16.378 17.136 15.404 13.527 15.404 13.527 12.327 16.686 12.327 16.686 11.392 13.527 11.392 13.527 8.441 16.916 8.441"></polygon><polygon fill="#00AEEF" points="4.464 9.309 4.463 9.309 4.457 9.298"></polygon><polygon fill="#00AEEF" points="24 7.501 17.919 7.501 17.919 8.44 20.434 8.44 20.434 16.378 21.456 16.378 21.456 8.44 24 8.44 24 7.501"></polygon><path fill="#00AEEF" d="M4.19,9.96l0.003-0.239c0-0.345-0.019-0.685-0.056-1.02l0.004,0.042h0.038C4.26,8.956,4.353,9.138,4.463,9.308l4.49,7.069h1.257V7.5H9.188v6.243l-0.002,0.203c0,0.388,0.023,0.771,0.068,1.148l-0.004-0.046H9.228c-0.054-0.107-0.173-0.304-0.355-0.593L4.496,7.501H3.167v8.877H4.19V9.96L4.19,9.96z"></path><polygon fill="#0097D0" points="16.686 11.821 12.481 11.821 12.481 16.378 17.131 16.378 17.136 15.404 13.527 15.404 13.527 12.327 16.686 12.327 16.686 11.821"></polygon><polygon fill="#0097D0" points="21.456 11.821 20.434 11.821 20.434 16.378 21.456 16.378 21.456 11.821"></polygon><path fill="#0097D0" d="M4.19,11.821H3.167v4.557H4.19V11.821L4.19,11.821z M10.21,11.821H9.188v1.922l-0.002,0.203c0,0.372,0.021,0.74,0.062,1.102H9.228c-0.054-0.107-0.173-0.304-0.355-0.593l-1.658-2.634H6.059l2.894,4.556h1.257V11.821L10.21,11.821z"></path><path fill="#00AEEF" d="M0,15.808v0.009c0,0.186,0.075,0.356,0.197,0.477c0.118,0.126,0.285,0.205,0.47,0.205h0.01h0.001h0.004c0.186,0,0.355-0.078,0.476-0.204c0.124-0.122,0.202-0.292,0.202-0.481v-0.007v-0.002c0-0.19-0.077-0.361-0.201-0.485c-0.119-0.129-0.29-0.209-0.478-0.209H0.678H0.666H0.655H0.654H0.653c-0.181,0.005-0.342,0.084-0.456,0.209C0.075,15.445,0,15.615,0,15.803V15.808L0,15.808z"></path><path fill="#0097D0" d="M1.359,15.806H0v0.002v0.009c0,0.186,0.075,0.356,0.197,0.477c0.118,0.126,0.285,0.205,0.47,0.205h0.01h0.001h0.004c0.186,0,0.355-0.078,0.476-0.204c0.124-0.122,0.202-0.292,0.202-0.481v-0.007V15.806L1.359,15.806L1.359,15.806z"></path></svg>